<svg class='svg svg-configure' xmlns="http://www.w3.org/2000/svg" width="107.07" height="100" viewBox="0 0 107.07 100">
	<g transform="translate(-0.045 -0.292)">
		<path d="M7.126,86.292h4.047V82.245H7.126c-1.981,0-4.047-1.054-4.047-3.035V7.374c0-1.981,2.066-3.035,4.047-3.035H86.034c1.981,0,4.047,1.054,4.047,3.035v4.047h3.035V7.374A7.019,7.019,0,0,0,86.034.292H7.126A7.019,7.019,0,0,0,.045,7.374V79.21A7.019,7.019,0,0,0,7.126,86.292Zm0,0" />
		<path d="M62.455,62.7h4v4h-4Zm0,0" transform="translate(-55.41 -55.41)" />
		<path d="M124.865,62.7h4v4h-4Zm0,0" transform="translate(-110.82 -55.41)" />
		<path d="M187.275,62.7h4v4h-4Zm0,0" transform="translate(-166.01 -55.41)" />
		<path d="M124.865,204.03a7.019,7.019,0,0,0,7.081,7.082h78.908a7.019,7.019,0,0,0,7.081-7.082V132.195a7.019,7.019,0,0,0-7.081-7.082H131.947a7.019,7.019,0,0,0-7.081,7.082Zm4.047-71.835a2.717,2.717,0,0,1,3.035-3.035h78.908c1.981,0,4.047,1.054,4.047,3.035V204.03a4.422,4.422,0,0,1-4.047,4.047H131.947c-1.981,0-3.035-2.066-3.035-4.047Zm0,0" transform="translate(-110.82 -110.82)" />
		<path d="M187.275,187.523h4v4h-4Zm0,0" transform="translate(-166.01 -166.01)" />
		<path d="M249.686,187.523h4v4h-4Zm0,0" transform="translate(-221.347 -166.01)" />
		<path d="M312.1,187.523h4v4h-4Zm0,0" transform="translate(-276.684 -166.01)" />
		<path d="M187.275,249.933h78v4h-78Zm0,0" transform="translate(-165.16 -221.346)" />
		<path d="M187.275,328.2h14v4h-14Zm0,0" transform="translate(-165.986 -290.514)" />
		<path d="M187.275,390.606h11v4h-11Zm0,0" transform="translate(-165.994 -345.851)" />
		<path d="M434.064,453.016c-6.853,0-12,6.147-12,13a11.723,11.723,0,0,0,12,12c6.853,0,13-5.147,13-12A13.46,13.46,0,0,0,434.064,453.016Zm0,22a9,9,0,1,1,9-9A9.1,9.1,0,0,1,434.064,475.016Zm0,0" transform="translate(-373.385 -401.035)" />
		<path d="M338.391,335.343c0-.979-1.021-1-2-1h-5c-.375-1.165-.441-2.912-1-4l3-3a2.429,2.429,0,0,0,0-3l-7-7a2.429,2.429,0,0,0-3,0l-3,3c-1.09-.557-2.836-.624-4-1v-5c0-.979-.021-2-1-2h-11a2.185,2.185,0,0,0-2,2v5a17.129,17.129,0,0,0-3,1l-4-3a1.224,1.224,0,0,0-2,0l-8,7a2.429,2.429,0,0,0,0,3l4,3c-.148.29-.865.706-1,1-.374.817-.724,2.145-1,3h-4c-.979,0-2,.021-2,1v11a2.185,2.185,0,0,0,2,2h4c.375,1.165,1.441,1.912,2,3l-4,4a1.224,1.224,0,0,0,0,2l8,8a1.224,1.224,0,0,0,2,0l4-4c1.09.557,1.836,1.624,3,2v4a2.185,2.185,0,0,0,2,2h11c.979,0,1-1.021,1-2v-4a34.243,34.243,0,0,0,4-2l3,4a2.429,2.429,0,0,0,3,0l7-8a1.224,1.224,0,0,0,0-2l-3-4a16.84,16.84,0,0,0,1-3h5a2.185,2.185,0,0,0,2-2Zm-4,9h-4c-.808,0-1.8,1.218-2,2a19.1,19.1,0,0,1-2,5,1.54,1.54,0,0,0,0,2l3,3-5,5-3-3a1.539,1.539,0,0,0-2,0,19.091,19.091,0,0,1-5,2c-.782.2-1,.192-1,1v5h-7v-5c0-.808-1.218-.8-2-1a19.092,19.092,0,0,1-5-2,1.539,1.539,0,0,0-2,0l-3,3-5-5,3-3a1.54,1.54,0,0,0,0-2,19.1,19.1,0,0,1-2-5c-.2-.782-.192-2-1-2h-5v-7h5c.808,0,.8-.218,1-1,.286-1.116,1.52-1.954,2-3,.277-.607-.337-1.426,0-2a1.542,1.542,0,0,0,0-2l-3-3,5-5,3,3a1.538,1.538,0,0,0,2,0,19.115,19.115,0,0,1,5-2c.782-.2,2-1.193,2-2v-4h7v4c0,.808.218,1.8,1,2a19.086,19.086,0,0,1,5,2,1.539,1.539,0,0,0,2,0l3-3,5,5-3,3a1.54,1.54,0,0,0,0,2,19.1,19.1,0,0,1,2,5c.2.782,1.192,1,2,1h4Zm0,0" transform="translate(-248.647 -276.051)" />
		<path d="M781.673,781.92h10v3h-10Zm0,0" transform="translate(-691.557 -691.628)" />
	</g>
</svg>