<svg class='svg svg-idea' xmlns="http://www.w3.org/2000/svg" width="83.596" height="100" viewBox="0 0 83.596 100">
	<g transform="translate(0)">
		<path d="M130.935,93.727c-14.233,0-26,11-26,25a25.459,25.459,0,0,0,9,19c4.093,4.027,3.093,12.908,3,13,0,.458.628.634,1,1,.279.275.628,1,1,1h24c.465,0,.721-.725,1-1s1-.542,1-1c0-.092-1.093-8.973,3-13,.093-.092.907.092,1,0a25.271,25.271,0,0,0,8-19C156.935,104.723,145.168,93.727,130.935,93.727Zm15,42c-.093.092,0-.092,0,0-3.628,3.844-3.907,10.98-4,14h-21c-.093-3.02-1.093-10.064-5-14a22.667,22.667,0,0,1-8-17c0-12.356,10.441-22,23-22s23,9.644,23,22A22.667,22.667,0,0,1,145.935,135.727Z" transform="translate(-89.445 -71.727)" />
		<path d="M211.53,120.621a2.507,2.507,0,0,0-2,2c0,.824,1.176,1,2,1,9.244,0,16,7.847,16,17a2.508,2.508,0,0,0,2,2c.824,0,1-1.176,1-2C230.622,129.729,222.514,120.621,211.53,120.621Z" transform="translate(-169.041 -93.621)" />
		<path d="M178.893,358.736h-21c-2.105,0-3,.895-3,3s.895,4,3,4h21a4.14,4.14,0,0,0,4-4C182.893,359.63,181,358.736,178.893,358.736Zm0,4h-21c-.366,0,0-.542,0-1s-.458-1,0-1h21c.366,0,0,.542,0,1S179.259,362.736,178.893,362.736Z" transform="translate(-127.403 -275.736)" />
		<path d="M185.925,398.643h-14a4,4,0,0,0,0,8h14a4.141,4.141,0,0,0,4-4A4.077,4.077,0,0,0,185.925,398.643Zm0,4h-14c-.366,0-1,.458-1,0a1.151,1.151,0,0,1,1-1h14c.366,0,0,.542,0,1S186.291,402.643,185.925,402.643Z" transform="translate(-137.435 -306.643)" />
		<path d="M210.651,13.465c.915,0,1-.176,1-1v-11c0-.824-.176-1-1-1s-2,.176-2,1v11C208.651,13.289,209.828,13.465,210.651,13.465Z" transform="translate(-169.162 -0.465)" />
		<path d="M302.1,33.039c-.732-.549-1.542.359-2,1l-6,9c-.549.732-.732,1.542,0,2,.275.183.725,0,1,0,.549,0,.725-.542,1-1l6-9C302.646,34.4,302.829,33.5,302.1,33.039Z" transform="translate(-233.607 -26.039)" />
		<path d="M110.111,43.394c.275,0,.725-.817,1-1,.732-.458.458-1.268,0-2l-5-9c-.458-.732-1.268-.458-2,0s-1.458,1.268-1,2l6,9C109.477,42.943,109.562,43.394,110.111,43.394Z" transform="translate(-87.621 -24.394)" />
		<path d="M47.47,107.86l-9-5c-.732-.366-1.634.268-2,1-.458.732-.824,1.634,0,2l10,5c.275.092-.275,0,0,0a2.83,2.83,0,0,0,2-1C48.836,109.128,48.2,108.226,47.47,107.86Z" transform="translate(-35.98 -79.86)" />
		<path d="M355.022,103.86c-.366-.732-1.268-1.366-2-1l-10,5c-.732.366-.366,1.268,0,2,.275.549.451,1,1,1a3.642,3.642,0,0,0,1,0l9-5C354.755,105.494,355.389,104.592,355.022,103.86Z" transform="translate(-271.533 -79.86)" />
	</g>
</svg>