<svg class='svg svg-install' xmlns="http://www.w3.org/2000/svg" width="100" height="100" viewBox="0 0 100 100">
	<g transform="translate(-0.428 -0.428)">
		<path d="M6.428,73.428h4v-3h-4c-1.848,0-3-2.152-3-4v-60a2.786,2.786,0,0,1,3-3h74a2.786,2.786,0,0,1,3,3v4h4v-4c0-3.7-3.3-6-7-6h-74c-3.7,0-6,2.3-6,6v60C.428,70.123,2.732,73.428,6.428,73.428Zm0,0" />
		<path d="M62.236,62.237h4v4h-4Zm0,0" transform="translate(-55.809 -55.809)" />
		<path d="M125.045,62.237h3v4h-3Zm0,0" transform="translate(-111.617 -55.809)" />
		<path d="M187.854,62.237h3v4h-3Zm0,0" transform="translate(-167.426 -55.809)" />
		<path d="M205.045,125.045h-73a7.231,7.231,0,0,0-7,7v60a7.231,7.231,0,0,0,7,7h73a7.231,7.231,0,0,0,7-7v-60A7.231,7.231,0,0,0,205.045,125.045Zm4,67c0,1.848-2.152,3-4,3h-73c-1.848,0-4-1.152-4-3v-60a4.571,4.571,0,0,1,4-4h73a4.571,4.571,0,0,1,4,4Zm0,0" transform="translate(-111.617 -111.617)" />
		<path d="M187.854,187.854h3v3h-3Zm0,0" transform="translate(-167.426 -167.426)" />
		<path d="M249.662,187.854h4v3h-4Zm0,0" transform="translate(-223.234 -167.426)" />
		<path d="M312.47,187.854h3v3h-3Zm0,0" transform="translate(-279.043 -167.426)" />
		<path d="M187.854,249.662h73v4h-73Zm0,0" transform="translate(-167.426 -223.234)" />
		<path d="M218.758,515.848h10v3h-10Zm0,0" transform="translate(-195.33 -460.42)" />
		<path d="M218.758,593.609h35v3h-35Zm0,0" transform="translate(-195.33 -530.181)" />
		<path d="M218.758,672.37h18v3h-18Zm0,0" transform="translate(-195.33 -599.942)" />
		<path d="M499.9,437.088h17v4h-17Zm0,0" transform="translate(-446.468 -390.66)" />
		<path d="M734.178,593.609h12v3h-12Zm0,0" transform="translate(-655.75 -530.181)" />
		<path d="M593.609,672.37h27v3h-27Zm0,0" transform="translate(-530.181 -599.942)" />
		<path d="M359.327,515.848h25v3h-25Zm0,0" transform="translate(-320.899 -460.42)" />
		<path d="M499.9,359.327h12v3h-12Zm0,0" transform="translate(-446.468 -320.899)" />
		<path d="M640.465,359.327h22v3h-22Zm0,0" transform="translate(-572.037 -320.899)" />
		<path d="M422.135,672.37h15v3h-15Zm0,0" transform="translate(-376.708 -599.942)" />
		<path d="M624.513,515.848h24v3h-24Zm0,0" transform="translate(-558.085 -460.42)" />
		<path d="M687.321,437.088h17v4h-17Zm0,0" transform="translate(-613.894 -390.66)" />
		<path d="M577.657,593.609h14v3h-14Zm0,0" transform="translate(-516.229 -530.181)" />
		<path d="M224.762,348.463l-6,5a1.266,1.266,0,0,0,0,2l6,5,2-2-4-4,4-4Zm0,0" transform="translate(-195.334 -311.035)" />
		<path d="M397.319,360.463l5-5a1.266,1.266,0,0,0,0-2l-5-5-2,2,4,4-4,4Zm0,0" transform="translate(-352.891 -311.035)" />
		<path d="M312.882,353l3-13,4,1-4,13Zm0,0" transform="translate(-279.454 -303.567)" />
		<path d="M354.475,843.843h-37c-.444,0-.686-.314-1,0l-3,4a1.266,1.266,0,0,0,0,2l3,3c.314.314.556,1,1,1h37a5,5,0,0,0,0-10Zm-5,7h-31l-2-2,2-2h31Zm5,0h-2v-4h2a2,2,0,0,1,0,4Zm0,0" transform="translate(-279.047 -753.415)" />
	</g>
</svg>